<svg width="40" height="40" viewBox="0 0 40 40" fill="none" xmlns="http://www.w3.org/2000/svg">
<rect width="40" height="40" rx="20" fill="#EEEEEE"/>
<path d="M11 29V27C11 25.9391 11.4214 24.9217 12.1716 24.1716C12.9217 23.4214 13.9391 23 15 23H19C20.0609 23 21.0783 23.4214 21.8284 24.1716C22.5786 24.9217 23 25.9391 23 27V29M24 19H30M27 16V22M21 15C21 17.2091 19.2091 19 17 19C14.7909 19 13 17.2091 13 15C13 12.7909 14.7909 11 17 11C19.2091 11 21 12.7909 21 15Z" stroke="#1F2025" stroke-width="2" stroke-linecap="round" stroke-linejoin="round"/>
</svg>
