<svg width="26" height="26" viewBox="0 0 26 26" fill="none" xmlns="http://www.w3.org/2000/svg">
<path fill-rule="evenodd" clip-rule="evenodd" d="M10.9671 3.12614C11.2169 3.09683 11.47 3.11739 11.7118 3.18664C11.9535 3.25588 12.1792 3.37244 12.3755 3.52954C12.5719 3.68664 12.7351 3.88116 12.8558 4.10183C12.9764 4.3225 13.052 4.56492 13.0782 4.81503C13.0819 4.84968 13.0837 4.88449 13.0837 4.91932V11.9193C13.0837 12.1845 13.1891 12.4389 13.3766 12.6264C13.5641 12.814 13.8185 12.9193 14.0837 12.9193H20.8837C21.4141 12.9193 21.9228 13.13 22.2979 13.5051C22.673 13.8802 22.8837 14.3889 22.8837 14.9193C22.8837 14.9953 22.875 15.0711 22.8579 15.1452C22.4549 16.8833 21.5943 18.4819 20.3653 19.7753C19.1362 21.0687 17.5835 22.0097 15.8682 22.5007C14.1529 22.9917 12.3375 23.0148 10.6102 22.5677C8.88295 22.1206 7.30676 21.2195 6.04514 19.9579C4.78352 18.6963 3.88242 17.1201 3.4353 15.3928C2.98818 13.6655 3.01133 11.8501 3.50235 10.1348C3.99336 8.4195 4.93436 6.8668 6.22774 5.63775C7.52111 4.40871 9.11976 3.54809 10.8579 3.14516C10.8939 3.1368 10.9304 3.13045 10.9671 3.12614ZM11.0837 5.14932C9.78068 5.49159 8.58386 6.1578 7.60543 7.08757C6.57073 8.0708 5.81793 9.31296 5.42512 10.6852C5.03231 12.0574 5.01379 13.5098 5.37148 14.8916C5.72918 16.2734 6.45006 17.5344 7.45936 18.5437C8.46865 19.553 9.7296 20.2738 11.1114 20.6315C12.4932 20.9892 13.9456 20.9707 15.3178 20.5779C16.6901 20.1851 17.9322 19.4323 18.9155 18.3976C19.8452 17.4192 20.5114 16.2224 20.8537 14.9193H14.0837C13.2881 14.9193 12.525 14.6033 11.9624 14.0406C11.3998 13.478 11.0837 12.715 11.0837 11.9193V5.14932ZM15.5058 3.60322C15.7706 3.41575 16.1098 3.36836 16.4158 3.47611C17.8266 3.97287 19.108 4.77977 20.1657 5.83739C21.2233 6.89502 22.0302 8.17642 22.5269 9.58722C22.6347 9.89321 22.5873 10.2325 22.3998 10.4972C22.2124 10.762 21.9081 10.9193 21.5837 10.9193H17.0837C16.5533 10.9193 16.0446 10.7086 15.6695 10.3336C15.2944 9.95848 15.0837 9.44978 15.0837 8.91934V4.41934C15.0837 4.09493 15.2411 3.79068 15.5058 3.60322ZM17.0837 5.97399V8.91934H20.0291C19.6794 8.31152 19.2503 7.75045 18.7514 7.25161C18.2526 6.75277 17.6915 6.32365 17.0837 5.97399Z" fill="#888888"/>
</svg>
