<svg width="40" height="41" viewBox="0 0 40 41" fill="none" xmlns="http://www.w3.org/2000/svg">
<rect x="0.5" y="1" width="39" height="39" rx="19.5" fill="#343837"/>
<rect x="0.5" y="1" width="39" height="39" rx="19.5" stroke="#BEBEBE"/>
<path fill-rule="evenodd" clip-rule="evenodd" d="M16.5858 11.0858C16.9609 10.7107 17.4696 10.5 18 10.5H22C22.5304 10.5 23.0391 10.7107 23.4142 11.0858C23.7893 11.4609 24 11.9696 24 12.5V14.5H26.9883C26.9953 14.4999 27.0024 14.4999 27.0095 14.5H28C28.5523 14.5 29 14.9477 29 15.5C29 16.0523 28.5523 16.5 28 16.5H27.9201L26.9997 27.5458C26.9878 28.3249 26.6731 29.0695 26.1213 29.6213C25.5587 30.1839 24.7957 30.5 24 30.5H16C15.2043 30.5 14.4413 30.1839 13.8787 29.6213C13.3269 29.0695 13.0122 28.3249 13.0003 27.5458L12.0799 16.5H12C11.4477 16.5 11 16.0523 11 15.5C11 14.9477 11.4477 14.5 12 14.5H12.9905C12.9976 14.4999 13.0047 14.4999 13.0117 14.5H16V12.5C16 11.9696 16.2107 11.4609 16.5858 11.0858ZM14.0868 16.5L14.9965 27.417C14.9988 27.4446 15 27.4723 15 27.5C15 27.7652 15.1054 28.0196 15.2929 28.2071C15.4804 28.3946 15.7348 28.5 16 28.5H24C24.2652 28.5 24.5196 28.3946 24.7071 28.2071C24.8946 28.0196 25 27.7652 25 27.5C25 27.4723 25.0012 27.4446 25.0035 27.417L25.9132 16.5H14.0868ZM22 14.5H18V12.5H22V14.5ZM18 18.5C18.5523 18.5 19 18.9477 19 19.5V25.5C19 26.0523 18.5523 26.5 18 26.5C17.4477 26.5 17 26.0523 17 25.5V19.5C17 18.9477 17.4477 18.5 18 18.5ZM22 18.5C22.5523 18.5 23 18.9477 23 19.5V25.5C23 26.0523 22.5523 26.5 22 26.5C21.4477 26.5 21 26.0523 21 25.5V19.5C21 18.9477 21.4477 18.5 22 18.5Z" fill="#F8FBFA"/>
</svg>
