<svg width="26" height="26" viewBox="0 0 26 26" fill="none" xmlns="http://www.w3.org/2000/svg">
<path d="M14.5708 12.5372L16.7917 10.3164M15.1667 14.1081C15.1667 15.3047 14.1966 16.2747 13 16.2747C11.8034 16.2747 10.8333 15.3047 10.8333 14.1081C10.8333 12.9114 11.8034 11.9414 13 11.9414C14.1966 11.9414 15.1667 12.9114 15.1667 14.1081ZM6.93333 21.6913C5.34966 20.4325 4.19674 18.7124 3.63434 16.7691C3.07195 14.8259 3.12793 12.7558 3.79453 10.8458C4.46113 8.93583 5.70534 7.28047 7.35474 6.10916C9.00413 4.93785 10.977 4.30859 13 4.30859C15.023 4.30859 16.9959 4.93785 18.6453 6.10916C20.2947 7.28047 21.5389 8.93583 22.2055 10.8458C22.8721 12.7558 22.9281 14.8259 22.3657 16.7691C21.8033 18.7124 20.6503 20.4325 19.0667 21.6913H6.93333Z" stroke="#888888" stroke-width="2" stroke-linecap="round" stroke-linejoin="round"/>
</svg>
