<svg width="37" height="34" viewBox="0 0 37 34" fill="none" xmlns="http://www.w3.org/2000/svg">
<rect x="0.5" y="0.5" width="36" height="33" rx="16.5" fill="white"/>
<rect x="0.5" y="0.5" width="36" height="33" rx="16.5" stroke="#BEBEBE"/>
<path fill-rule="evenodd" clip-rule="evenodd" d="M15.5858 7.58579C15.9609 7.21071 16.4696 7 17 7H21C21.5304 7 22.0391 7.21071 22.4142 7.58579C22.7893 7.96086 23 8.46957 23 9V11H25.9883C25.9953 10.9999 26.0024 10.9999 26.0095 11H27C27.5523 11 28 11.4477 28 12C28 12.5523 27.5523 13 27 13H26.9201L25.9997 24.0458C25.9878 24.8249 25.6731 25.5695 25.1213 26.1213C24.5587 26.6839 23.7957 27 23 27H15C14.2043 27 13.4413 26.6839 12.8787 26.1213C12.3269 25.5695 12.0122 24.8249 12.0003 24.0458L11.0799 13H11C10.4477 13 10 12.5523 10 12C10 11.4477 10.4477 11 11 11H11.9905C11.9976 10.9999 12.0047 10.9999 12.0117 11H15V9C15 8.46957 15.2107 7.96086 15.5858 7.58579ZM13.0868 13L13.9965 23.917C13.9988 23.9446 14 23.9723 14 24C14 24.2652 14.1054 24.5196 14.2929 24.7071C14.4804 24.8946 14.7348 25 15 25H23C23.2652 25 23.5196 24.8946 23.7071 24.7071C23.8946 24.5196 24 24.2652 24 24C24 23.9723 24.0012 23.9446 24.0035 23.917L24.9132 13H13.0868ZM21 11H17V9H21V11ZM17 15C17.5523 15 18 15.4477 18 16V22C18 22.5523 17.5523 23 17 23C16.4477 23 16 22.5523 16 22V16C16 15.4477 16.4477 15 17 15ZM21 15C21.5523 15 22 15.4477 22 16V22C22 22.5523 21.5523 23 21 23C20.4477 23 20 22.5523 20 22V16C20 15.4477 20.4477 15 21 15Z" fill="#474747"/>
</svg>
