<svg width="40" height="40" viewBox="0 0 40 40" fill="none" xmlns="http://www.w3.org/2000/svg">
<rect width="40" height="40" rx="20" fill="#535756"/>
<path d="M19.588 24.64C18.8507 24.64 18.2253 24.514 17.712 24.262C17.208 24.0007 16.8207 23.6647 16.55 23.254C16.2887 22.8433 16.1487 22.4093 16.13 21.952C16.1207 21.868 16.144 21.8027 16.2 21.756C16.256 21.7093 16.326 21.686 16.41 21.686H17.166C17.25 21.686 17.3247 21.7047 17.39 21.742C17.4553 21.7793 17.5067 21.8587 17.544 21.98C17.6373 22.3253 17.7867 22.61 17.992 22.834C18.2067 23.0487 18.4493 23.2073 18.72 23.31C19 23.4033 19.2893 23.45 19.588 23.45C19.9893 23.45 20.3533 23.3707 20.68 23.212C21.016 23.044 21.282 22.8013 21.478 22.484C21.674 22.1573 21.772 21.7653 21.772 21.308C21.772 20.888 21.674 20.5287 21.478 20.23C21.2913 19.922 21.03 19.6887 20.694 19.53C20.3673 19.362 19.9987 19.278 19.588 19.278C19.28 19.278 19.028 19.3153 18.832 19.39C18.636 19.4647 18.468 19.5533 18.328 19.656C18.1973 19.7587 18.076 19.8473 17.964 19.922C17.8613 19.9967 17.7447 20.034 17.614 20.034H16.886C16.802 20.034 16.7273 20.006 16.662 19.95C16.5967 19.8847 16.5687 19.81 16.578 19.726L17.026 15.05C17.0353 14.938 17.068 14.854 17.124 14.798C17.1893 14.7327 17.2733 14.7 17.376 14.7H22.262C22.3553 14.7 22.43 14.7327 22.486 14.798C22.5513 14.854 22.584 14.9287 22.584 15.022V15.568C22.584 15.6707 22.5513 15.75 22.486 15.806C22.43 15.862 22.3553 15.89 22.262 15.89H18.23L17.964 18.648C18.0947 18.564 18.3047 18.466 18.594 18.354C18.8833 18.2327 19.28 18.172 19.784 18.172C20.2413 18.172 20.6707 18.242 21.072 18.382C21.4827 18.522 21.8467 18.7273 22.164 18.998C22.4813 19.2687 22.7287 19.6 22.906 19.992C23.0833 20.3747 23.172 20.818 23.172 21.322C23.172 22.0313 23.0133 22.6333 22.696 23.128C22.388 23.6227 21.9633 24.0007 21.422 24.262C20.89 24.514 20.2787 24.64 19.588 24.64Z" fill="#F8FBFA"/>
</svg>
