<svg width="40" height="41" viewBox="0 0 40 41" fill="none" xmlns="http://www.w3.org/2000/svg">
<rect y="0.5" width="40" height="40" rx="20" fill="#535756"/>
<path d="M21.114 25C21.0207 25 20.9413 24.972 20.876 24.916C20.82 24.8507 20.792 24.7713 20.792 24.678V22.662H16.256C16.1627 22.662 16.0833 22.634 16.018 22.578C15.962 22.5127 15.934 22.4333 15.934 22.34V21.78C15.934 21.7427 15.9433 21.6867 15.962 21.612C15.99 21.528 16.032 21.444 16.088 21.36L20.288 15.438C20.4 15.2793 20.5727 15.2 20.806 15.2H21.814C21.9073 15.2 21.982 15.2327 22.038 15.298C22.1033 15.354 22.136 15.4287 22.136 15.522V21.444H23.396C23.4987 21.444 23.578 21.4767 23.634 21.542C23.6993 21.598 23.732 21.6727 23.732 21.766V22.34C23.732 22.4333 23.6993 22.5127 23.634 22.578C23.578 22.634 23.5033 22.662 23.41 22.662H22.136V24.678C22.136 24.7713 22.1033 24.8507 22.038 24.916C21.982 24.972 21.9073 25 21.814 25H21.114ZM17.432 21.472H20.806V16.67L17.432 21.472Z" fill="#F8FBFA"/>
</svg>
