<svg width="41" height="40" viewBox="0 0 41 40" fill="none" xmlns="http://www.w3.org/2000/svg">
<path d="M1 20C1 9.23045 9.73045 0.5 20.5 0.5C31.2696 0.5 40 9.23045 40 20C40 30.7696 31.2696 39.5 20.5 39.5C9.73045 39.5 1 30.7696 1 20Z" stroke="#0A0A0A"/>
<path d="M11.132 25C11.0253 25 10.9347 24.9627 10.86 24.888C10.7853 24.8133 10.748 24.7227 10.748 24.616V14.2C10.748 14.0827 10.7853 13.9867 10.86 13.912C10.9347 13.8373 11.0253 13.8 11.132 13.8H15.276C16.5667 13.8 17.5853 14.0987 18.332 14.696C19.0787 15.2933 19.452 16.1627 19.452 17.304C19.452 18.0933 19.2547 18.7493 18.86 19.272C18.476 19.7947 17.9587 20.1733 17.308 20.408L19.644 24.488C19.676 24.552 19.692 24.6107 19.692 24.664C19.692 24.76 19.6547 24.84 19.58 24.904C19.516 24.968 19.4413 25 19.356 25H17.9C17.7187 25 17.58 24.952 17.484 24.856C17.388 24.76 17.3133 24.664 17.26 24.568L15.196 20.776H12.972V24.616C12.972 24.7227 12.9347 24.8133 12.86 24.888C12.796 24.9627 12.7053 25 12.588 25H11.132ZM12.972 18.968H15.228C15.8787 18.968 16.364 18.824 16.684 18.536C17.004 18.2373 17.164 17.8213 17.164 17.288C17.164 16.7547 17.004 16.3387 16.684 16.04C16.3747 15.7307 15.8893 15.576 15.228 15.576H12.972V18.968ZM25.9776 25.16C25.0496 25.16 24.2443 25.0053 23.5616 24.696C22.879 24.376 22.351 23.8907 21.9776 23.24C21.6043 22.5787 21.4176 21.736 21.4176 20.712V14.2C21.4176 14.0827 21.455 13.9867 21.5296 13.912C21.6043 13.8373 21.695 13.8 21.8016 13.8H23.2576C23.375 13.8 23.4656 13.8373 23.5296 13.912C23.6043 13.9867 23.6416 14.0827 23.6416 14.2V20.712C23.6416 21.5867 23.8496 22.2373 24.2656 22.664C24.6816 23.08 25.2523 23.288 25.9776 23.288C26.703 23.288 27.2683 23.08 27.6736 22.664C28.0896 22.2373 28.2976 21.5867 28.2976 20.712V14.2C28.2976 14.0827 28.335 13.9867 28.4096 13.912C28.4843 13.8373 28.5803 13.8 28.6976 13.8H30.1376C30.255 13.8 30.3456 13.8373 30.4096 13.912C30.4843 13.9867 30.5216 14.0827 30.5216 14.2V20.712C30.5216 21.736 30.335 22.5787 29.9616 23.24C29.599 23.8907 29.0763 24.376 28.3936 24.696C27.7216 25.0053 26.9163 25.16 25.9776 25.16Z" fill="#0A0A0A"/>
</svg>
