<svg width="41" height="40" viewBox="0 0 41 40" fill="none" xmlns="http://www.w3.org/2000/svg">
<path d="M1 20C1 9.23045 9.73045 0.5 20.5 0.5C31.2696 0.5 40 9.23045 40 20C40 30.7696 31.2696 39.5 20.5 39.5C9.73045 39.5 1 30.7696 1 20Z" stroke="#0A0A0A"/>
<path d="M7.5 20H8.94444M20.5 7V8.44444M32.0556 20H33.5M20.5 31.5556V33M11.2556 10.7556L12.2667 11.7667M29.7444 10.7556L28.7333 11.7667M28.7333 28.2333L29.7444 29.2444M12.2667 28.2333L11.2556 29.2444M26.2778 20C26.2778 23.191 23.691 25.7778 20.5 25.7778C17.309 25.7778 14.7222 23.191 14.7222 20C14.7222 16.809 17.309 14.2222 20.5 14.2222C23.691 14.2222 26.2778 16.809 26.2778 20Z" stroke="#0A0A0A" stroke-width="2" stroke-linecap="round" stroke-linejoin="round"/>
</svg>
