<svg width="138" height="48" viewBox="0 0 138 48" fill="none" xmlns="http://www.w3.org/2000/svg">
<path d="M31.9403 29.9184C30.7605 31.2808 28.705 31.4247 27.3522 30.2366C26.1724 29.1998 24.7211 28.6856 23.2675 28.6795C22.9503 28.6723 22.6271 28.694 22.3136 28.7449C20.8791 28.9518 19.5131 29.6559 18.4835 30.844C17.3038 32.2063 15.2434 32.3467 13.8918 31.1586C12.5391 29.9705 12.4033 27.8992 13.5831 26.5368C14.6127 25.3487 15.1197 23.8836 15.1329 22.4269C15.1365 22.1039 15.1112 21.782 15.0644 21.4699C14.8626 20.0204 14.1561 18.6388 12.9764 17.6019C11.6236 16.4138 11.4879 14.3425 12.6676 12.9802C13.8474 11.6179 15.9006 11.4775 17.2521 12.6656C18.6049 13.8537 18.7478 15.9238 17.5681 17.2861C16.5385 18.4742 16.0243 19.9394 16.0183 21.4033C16.0147 21.7191 16.0327 22.0409 16.0796 22.3616C16.2886 23.8025 16.9878 25.1854 18.1676 26.2223C19.3473 27.2591 20.8022 27.7697 22.2487 27.783C22.5731 27.783 22.8926 27.7649 23.2062 27.7141C24.6407 27.5072 26.0102 26.7994 27.0398 25.6113C28.2196 24.249 30.2764 24.1123 31.6291 25.3003C32.9807 26.4897 33.1213 28.5561 31.9403 29.9184Z" fill="url(#paint0_linear_987_1459)"/>
<path d="M26.4845 34.6043C26.4845 36.4118 25.0249 37.8818 23.23 37.8818C21.4351 37.8818 19.9802 36.4118 19.9802 34.6043C19.9802 32.7967 21.4351 31.3315 23.23 31.3315C25.0249 31.3315 26.4845 32.7967 26.4845 34.6043Z" fill="#009F5F"/>
<path d="M20.234 18.0583C21.6035 16.8895 23.6579 17.0577 24.8173 18.4382C25.8288 19.642 27.1876 20.3691 28.6233 20.5954C28.9368 20.651 29.2588 20.6777 29.576 20.6752C31.026 20.6873 32.4797 20.1986 33.6763 19.1798C35.0459 18.0111 37.1039 18.1841 38.2632 19.5634C39.4237 20.9426 39.2495 23.0103 37.8788 24.179C36.6834 25.1978 35.9637 26.5698 35.7331 28.0083C35.6814 28.3277 35.6586 28.6483 35.6574 28.9653C35.6418 30.4281 36.1331 31.9017 37.1459 33.1055C38.3065 34.4848 38.1323 36.5525 36.7615 37.7212C35.3919 38.8899 33.3411 38.7181 32.1818 37.3377C31.0212 35.9584 31.1882 33.8895 32.559 32.722C33.7544 31.7033 34.4812 30.3313 34.7047 28.8855C34.7552 28.5733 34.7852 28.2527 34.7876 27.9297C34.796 26.473 34.3106 25.0006 33.2991 23.7967C32.2875 22.5929 30.9251 21.8682 29.4967 21.6359C29.1759 21.5875 28.8575 21.5572 28.5392 21.5597C27.0891 21.5476 25.6306 22.04 24.4352 23.0587C23.0656 24.2274 21.0125 24.052 19.8519 22.6715C18.6938 21.2911 18.8644 19.227 20.234 18.0583Z" fill="url(#paint1_linear_987_1459)"/>
<path d="M32.9357 13.94C32.9357 15.7476 31.476 17.2176 29.6812 17.2176C27.8863 17.2176 26.4314 15.7476 26.4314 13.94C26.4314 12.1325 27.8863 10.6673 29.6812 10.6673C31.476 10.6673 32.9357 12.1325 32.9357 13.94Z" fill="#009F5F"/>
<path d="M53.525 32.24C52.101 32.24 50.877 32.008 49.853 31.544C48.829 31.064 48.029 30.336 47.453 29.36C46.877 28.368 46.565 27.136 46.517 25.664C46.501 24.976 46.493 24.296 46.493 23.624C46.493 22.952 46.501 22.264 46.517 21.56C46.565 20.104 46.885 18.888 47.477 17.912C48.069 16.936 48.877 16.2 49.901 15.704C50.941 15.208 52.149 14.96 53.525 14.96C54.901 14.96 56.109 15.208 57.149 15.704C58.189 16.2 59.005 16.936 59.597 17.912C60.189 18.888 60.509 20.104 60.557 21.56C60.589 22.264 60.605 22.952 60.605 23.624C60.605 24.296 60.589 24.976 60.557 25.664C60.509 27.136 60.197 28.368 59.621 29.36C59.045 30.336 58.237 31.064 57.197 31.544C56.173 32.008 54.949 32.24 53.525 32.24ZM53.525 29.48C54.565 29.48 55.413 29.176 56.069 28.568C56.725 27.944 57.077 26.936 57.125 25.544C57.157 24.84 57.173 24.192 57.173 23.6C57.173 22.992 57.157 22.344 57.125 21.656C57.093 20.728 56.917 19.976 56.597 19.4C56.293 18.808 55.877 18.384 55.349 18.128C54.821 17.856 54.213 17.72 53.525 17.72C52.853 17.72 52.253 17.856 51.725 18.128C51.197 18.384 50.773 18.808 50.453 19.4C50.149 19.976 49.981 20.728 49.949 21.656C49.933 22.344 49.925 22.992 49.925 23.6C49.925 24.192 49.933 24.84 49.949 25.544C49.997 26.936 50.349 27.944 51.005 28.568C51.661 29.176 52.501 29.48 53.525 29.48ZM64.0445 32C63.8845 32 63.7485 31.944 63.6365 31.832C63.5245 31.72 63.4685 31.584 63.4685 31.424V20.096C63.4685 19.936 63.5245 19.8 63.6365 19.688C63.7485 19.576 63.8845 19.52 64.0445 19.52H66.0125C66.1725 19.52 66.3085 19.576 66.4205 19.688C66.5325 19.8 66.5885 19.936 66.5885 20.096V21.08C67.0045 20.568 67.5325 20.144 68.1725 19.808C68.8285 19.456 69.6365 19.28 70.5965 19.28C71.5725 19.28 72.4205 19.504 73.1405 19.952C73.8605 20.384 74.4125 21 74.7965 21.8C75.1965 22.6 75.3965 23.56 75.3965 24.68V31.424C75.3965 31.584 75.3405 31.72 75.2285 31.832C75.1165 31.944 74.9805 32 74.8205 32H72.7085C72.5485 32 72.4125 31.944 72.3005 31.832C72.1885 31.72 72.1325 31.584 72.1325 31.424V24.824C72.1325 23.896 71.9005 23.168 71.4365 22.64C70.9885 22.112 70.3325 21.848 69.4685 21.848C68.6365 21.848 67.9725 22.112 67.4765 22.64C66.9805 23.168 66.7325 23.896 66.7325 24.824V31.424C66.7325 31.584 66.6765 31.72 66.5645 31.832C66.4525 31.944 66.3165 32 66.1565 32H64.0445ZM83.8211 32.24C82.0451 32.24 80.6371 31.728 79.5971 30.704C78.5571 29.68 77.9971 28.224 77.9171 26.336C77.9011 26.176 77.8931 25.976 77.8931 25.736C77.8931 25.48 77.9011 25.28 77.9171 25.136C77.9811 23.936 78.2531 22.896 78.7331 22.016C79.2291 21.136 79.9091 20.464 80.7731 20C81.6371 19.52 82.6531 19.28 83.8211 19.28C85.1171 19.28 86.2051 19.552 87.0851 20.096C87.9651 20.624 88.6291 21.368 89.0771 22.328C89.5251 23.272 89.7491 24.368 89.7491 25.616V26.12C89.7491 26.28 89.6931 26.416 89.5811 26.528C89.4691 26.64 89.3251 26.696 89.1491 26.696H81.1811C81.1811 26.696 81.1811 26.72 81.1811 26.768C81.1811 26.816 81.1811 26.856 81.1811 26.888C81.1971 27.448 81.3011 27.968 81.4931 28.448C81.7011 28.912 81.9971 29.288 82.3811 29.576C82.7811 29.864 83.2531 30.008 83.7971 30.008C84.2451 30.008 84.6211 29.944 84.9251 29.816C85.2291 29.672 85.4771 29.512 85.6691 29.336C85.8611 29.16 85.9971 29.016 86.0771 28.904C86.2211 28.712 86.3331 28.6 86.4131 28.568C86.5091 28.52 86.6451 28.496 86.8211 28.496H88.8851C89.0451 28.496 89.1731 28.544 89.2691 28.64C89.3811 28.736 89.4291 28.856 89.4131 29C89.3971 29.256 89.2611 29.568 89.0051 29.936C88.7651 30.304 88.4131 30.664 87.9491 31.016C87.4851 31.368 86.9011 31.664 86.1971 31.904C85.5091 32.128 84.7171 32.24 83.8211 32.24ZM81.1811 24.68H86.4851V24.608C86.4851 23.984 86.3811 23.44 86.1731 22.976C85.9651 22.512 85.6611 22.144 85.2611 21.872C84.8611 21.6 84.3811 21.464 83.8211 21.464C83.2611 21.464 82.7811 21.6 82.3811 21.872C81.9811 22.144 81.6771 22.512 81.4691 22.976C81.2771 23.44 81.1811 23.984 81.1811 24.608V24.68ZM96.9286 32.24C95.9526 32.24 95.1046 32.024 94.3846 31.592C93.6806 31.144 93.1366 30.52 92.7526 29.72C92.3686 28.904 92.1766 27.944 92.1766 26.84V20.096C92.1766 19.936 92.2326 19.8 92.3446 19.688C92.4566 19.576 92.5926 19.52 92.7526 19.52H94.8646C95.0406 19.52 95.1766 19.576 95.2726 19.688C95.3846 19.8 95.4406 19.936 95.4406 20.096V26.696C95.4406 28.68 96.3126 29.672 98.0566 29.672C98.8886 29.672 99.5446 29.408 100.025 28.88C100.521 28.352 100.769 27.624 100.769 26.696V20.096C100.769 19.936 100.825 19.8 100.937 19.688C101.049 19.576 101.185 19.52 101.345 19.52H103.457C103.617 19.52 103.753 19.576 103.865 19.688C103.977 19.8 104.033 19.936 104.033 20.096V31.424C104.033 31.584 103.977 31.72 103.865 31.832C103.753 31.944 103.617 32 103.457 32H101.513C101.337 32 101.193 31.944 101.081 31.832C100.985 31.72 100.937 31.584 100.937 31.424V30.44C100.505 31 99.9686 31.44 99.3286 31.76C98.6886 32.08 97.8886 32.24 96.9286 32.24ZM107.779 32C107.619 32 107.483 31.944 107.371 31.832C107.259 31.72 107.203 31.584 107.203 31.424V20.096C107.203 19.936 107.259 19.8 107.371 19.688C107.483 19.576 107.619 19.52 107.779 19.52H109.651C109.811 19.52 109.947 19.576 110.059 19.688C110.171 19.8 110.227 19.936 110.227 20.096V20.912C110.563 20.464 111.011 20.088 111.571 19.784C112.147 19.464 112.827 19.296 113.611 19.28C115.435 19.248 116.707 19.96 117.427 21.416C117.795 20.776 118.323 20.264 119.011 19.88C119.715 19.48 120.491 19.28 121.339 19.28C122.171 19.28 122.923 19.472 123.595 19.856C124.283 20.24 124.819 20.824 125.203 21.608C125.603 22.376 125.803 23.352 125.803 24.536V31.424C125.803 31.584 125.747 31.72 125.635 31.832C125.523 31.944 125.387 32 125.227 32H123.259C123.099 32 122.963 31.944 122.851 31.832C122.739 31.72 122.683 31.584 122.683 31.424V24.728C122.683 24.008 122.579 23.44 122.371 23.024C122.163 22.592 121.883 22.288 121.531 22.112C121.179 21.936 120.787 21.848 120.355 21.848C120.003 21.848 119.651 21.936 119.299 22.112C118.947 22.288 118.659 22.592 118.435 23.024C118.211 23.44 118.099 24.008 118.099 24.728V31.424C118.099 31.584 118.043 31.72 117.931 31.832C117.819 31.944 117.683 32 117.523 32H115.555C115.379 32 115.235 31.944 115.123 31.832C115.027 31.72 114.979 31.584 114.979 31.424V24.728C114.979 24.008 114.867 23.44 114.643 23.024C114.419 22.592 114.131 22.288 113.779 22.112C113.427 21.936 113.051 21.848 112.651 21.848C112.283 21.848 111.923 21.944 111.571 22.136C111.219 22.312 110.931 22.608 110.707 23.024C110.483 23.44 110.371 24.008 110.371 24.728V31.424C110.371 31.584 110.315 31.72 110.203 31.832C110.091 31.944 109.955 32 109.795 32H107.779Z" fill="black"/>
<defs>
<linearGradient id="paint0_linear_987_1459" x1="11.864" y1="21.9121" x2="32.7419" y2="21.9121" gradientUnits="userSpaceOnUse">
<stop offset="0.012" stop-color="#009F5F"/>
<stop offset="1" stop-color="#BDFC00"/>
</linearGradient>
<linearGradient id="paint1_linear_987_1459" x1="19.971" y1="28.837" x2="39.5988" y2="26.6819" gradientUnits="userSpaceOnUse">
<stop offset="0.2437" stop-color="#BDFC00"/>
<stop offset="1" stop-color="#009227"/>
</linearGradient>
</defs>
</svg>
