<svg width="26" height="26" viewBox="0 0 26 26" fill="none" xmlns="http://www.w3.org/2000/svg">
<path fill-rule="evenodd" clip-rule="evenodd" d="M13.4081 5.41306C11.276 5.32661 9.19489 5.93291 7.55245 7.09813C5.91231 8.26173 4.83306 9.89251 4.47357 11.6685C4.11475 13.4412 4.48838 15.2783 5.54831 16.846C5.73696 17.125 5.78511 17.4758 5.67861 17.7954L4.86901 20.2241L8.10875 19.5348C8.34459 19.4846 8.59042 19.5146 8.80733 19.6199C10.6643 20.5214 12.8383 20.7968 14.9181 20.3847C16.9977 19.9727 18.8109 18.9085 20.0366 17.4214C21.259 15.9384 21.8183 14.1341 21.6428 12.3421C21.4671 10.5484 20.5623 8.84454 19.0552 7.55912C17.5454 6.27131 15.5402 5.49951 13.4081 5.41306ZM6.29877 5.33101C8.34987 3.87587 10.9072 3.14321 13.4959 3.24817C16.0846 3.35314 18.5613 4.29008 20.4613 5.91064C22.364 7.53359 23.5649 9.73982 23.7991 12.1309C24.0335 14.5237 23.2791 16.8941 21.7085 18.7996C20.1412 20.701 17.8721 22.0083 15.3392 22.5101C12.9326 22.9868 10.4157 22.7119 8.20593 21.7293L3.46798 22.7374C3.08794 22.8182 2.6937 22.6894 2.43479 22.3997C2.17587 22.11 2.09192 21.7038 2.21479 21.3352L3.46041 17.5983C2.30883 15.6652 1.90762 13.4241 2.34997 11.2387C2.8273 8.88045 4.24539 6.78778 6.29877 5.33101ZM8.6592 11.9277C9.25751 11.9277 9.74253 12.4127 9.74253 13.011V13.0219C9.74253 13.6202 9.25751 14.1052 8.6592 14.1052C8.06089 14.1052 7.57587 13.6202 7.57587 13.0219V13.011C7.57587 12.4127 8.06089 11.9277 8.6592 11.9277ZM12.9925 11.9277C13.5908 11.9277 14.0759 12.4127 14.0759 13.011V13.0219C14.0759 13.6202 13.5908 14.1052 12.9925 14.1052C12.3942 14.1052 11.9092 13.6202 11.9092 13.0219V13.011C11.9092 12.4127 12.3942 11.9277 12.9925 11.9277ZM17.3259 11.9277C17.9242 11.9277 18.4092 12.4127 18.4092 13.011V13.0219C18.4092 13.6202 17.9242 14.1052 17.3259 14.1052C16.7276 14.1052 16.2425 13.6202 16.2425 13.0219V13.011C16.2425 12.4127 16.7276 11.9277 17.3259 11.9277Z" fill="#888888"/>
</svg>
