<svg width="41" height="40" viewBox="0 0 41 40" fill="none" xmlns="http://www.w3.org/2000/svg">
<path d="M1 20C1 9.23045 9.73045 0.5 20.5 0.5C31.2696 0.5 40 9.23045 40 20C40 30.7696 31.2696 39.5 20.5 39.5C9.73045 39.5 1 30.7696 1 20Z" stroke="#0A0A0A"/>
<path d="M17.2507 25.4167V26.5C17.2507 27.362 17.5931 28.1886 18.2026 28.7981C18.812 29.4076 19.6387 29.75 20.5007 29.75C21.3626 29.75 22.1893 29.4076 22.7987 28.7981C23.4082 28.1886 23.7507 27.362 23.7507 26.5V25.4167M18.334 12.4167C18.334 11.842 18.5623 11.2909 18.9686 10.8846C19.3749 10.4783 19.926 10.25 20.5007 10.25C21.0753 10.25 21.6264 10.4783 22.0327 10.8846C22.439 11.2909 22.6673 11.842 22.6673 12.4167C23.9114 13.0049 24.972 13.9207 25.7354 15.0657C26.4987 16.2108 26.9361 17.542 27.0007 18.9167V22.1667C27.0822 22.8402 27.3207 23.4851 27.697 24.0496C28.0734 24.6141 28.577 25.0824 29.1673 25.4167H11.834C12.4243 25.0824 12.9279 24.6141 13.3043 24.0496C13.6806 23.4851 13.9191 22.8402 14.0007 22.1667V18.9167C14.0652 17.542 14.5026 16.2108 15.2659 15.0657C16.0293 13.9207 17.0899 13.0049 18.334 12.4167Z" stroke="#0A0A0A" stroke-width="2" stroke-linecap="round" stroke-linejoin="round"/>
<circle cx="27" cy="12.4167" r="3.25" fill="#009F5F"/>
</svg>
