<svg width="40" height="40" viewBox="0 0 40 40" fill="none" xmlns="http://www.w3.org/2000/svg">
<rect width="40" height="40" rx="20" fill="#EBEBEB"/>
<path d="M20.864 24.5C20.7707 24.5 20.6913 24.472 20.626 24.416C20.57 24.3507 20.542 24.2713 20.542 24.178V16.338L18.218 18.13C18.1433 18.186 18.064 18.2093 17.98 18.2C17.896 18.1907 17.826 18.1487 17.77 18.074L17.406 17.612C17.35 17.528 17.3267 17.444 17.336 17.36C17.3547 17.276 17.4013 17.206 17.476 17.15L20.528 14.798C20.5933 14.7513 20.654 14.7233 20.71 14.714C20.766 14.7047 20.8267 14.7 20.892 14.7H21.606C21.6993 14.7 21.774 14.7327 21.83 14.798C21.886 14.854 21.914 14.9287 21.914 15.022V24.178C21.914 24.2713 21.886 24.3507 21.83 24.416C21.774 24.472 21.6993 24.5 21.606 24.5H20.864Z" fill="black"/>
</svg>
