<svg width="41" height="40" viewBox="0 0 41 40" fill="none" xmlns="http://www.w3.org/2000/svg">
<path d="M1 20C1 9.23045 9.73045 0.5 20.5 0.5C31.2696 0.5 40 9.23045 40 20C40 30.7696 31.2696 39.5 20.5 39.5C9.73045 39.5 1 30.7696 1 20Z" stroke="#0A0A0A"/>
<path fill-rule="evenodd" clip-rule="evenodd" d="M20.4993 11.3332C18.7044 11.3332 17.2493 12.7882 17.2493 14.5832C17.2493 16.3781 18.7044 17.8332 20.4993 17.8332C22.2943 17.8332 23.7493 16.3781 23.7493 14.5832C23.7493 12.7882 22.2943 11.3332 20.4993 11.3332ZM15.0827 14.5832C15.0827 11.5916 17.5078 9.1665 20.4993 9.1665C23.4909 9.1665 25.916 11.5916 25.916 14.5832C25.916 17.5747 23.4909 19.9998 20.4993 19.9998C17.5078 19.9998 15.0827 17.5747 15.0827 14.5832ZM18.3327 24.3332C17.4707 24.3332 16.6441 24.6756 16.0346 25.2851C15.4251 25.8946 15.0827 26.7212 15.0827 27.5832V29.7498C15.0827 30.3481 14.5977 30.8332 13.9993 30.8332C13.401 30.8332 12.916 30.3481 12.916 29.7498V27.5832C12.916 26.1466 13.4867 24.7688 14.5025 23.753C15.5183 22.7372 16.8961 22.1665 18.3327 22.1665H22.666C24.1026 22.1665 25.4804 22.7372 26.4962 23.753C27.512 24.7688 28.0827 26.1466 28.0827 27.5832V29.7498C28.0827 30.3481 27.5977 30.8332 26.9993 30.8332C26.401 30.8332 25.916 30.3481 25.916 29.7498V27.5832C25.916 26.7212 25.5736 25.8946 24.9641 25.2851C24.3546 24.6756 23.528 24.3332 22.666 24.3332H18.3327Z" fill="#0A0A0A"/>
</svg>
