<svg width="26" height="26" viewBox="0 0 26 26" fill="none" xmlns="http://www.w3.org/2000/svg">
<path fill-rule="evenodd" clip-rule="evenodd" d="M10.3534 5.08077C11.027 2.30631 14.9738 2.30649 15.6469 5.0813C15.6738 5.19209 15.7264 5.29524 15.8006 5.38184C15.8747 5.46845 15.9682 5.53633 16.0735 5.57996C16.1788 5.62359 16.2929 5.64173 16.4066 5.63292C16.5202 5.62411 16.6302 5.58859 16.7275 5.52925C19.1657 4.04388 21.9572 6.83392 20.4723 9.27308C20.413 9.37036 20.3774 9.48044 20.3686 9.59401C20.3598 9.70758 20.378 9.82162 20.4216 9.92687C20.4651 10.0321 20.5329 10.1256 20.6194 10.1997C20.7058 10.2737 20.8084 10.3263 20.9189 10.3532C23.6933 11.0268 23.6937 14.9737 20.9189 15.6469C20.8081 15.6737 20.7049 15.7264 20.6183 15.8005C20.5317 15.8746 20.4638 15.9682 20.4202 16.0735C20.3766 16.1788 20.3584 16.2929 20.3672 16.4065C20.3761 16.5202 20.4116 16.6302 20.4709 16.7275C21.9563 19.1657 19.1662 21.9572 16.7271 20.4722C16.6298 20.413 16.5197 20.3774 16.4062 20.3686C16.2926 20.3598 16.1785 20.3779 16.0733 20.4215C15.9681 20.4651 15.8746 20.5329 15.8005 20.6194C15.7265 20.7058 15.6737 20.8089 15.6468 20.9194C14.9732 23.6938 11.0264 23.6934 10.3532 20.9185C10.3264 20.8078 10.2738 20.7049 10.1996 20.6183C10.1255 20.5317 10.032 20.4638 9.9267 20.4202C9.82139 20.3765 9.70727 20.3584 9.59362 20.3672C9.47998 20.376 9.3697 20.4117 9.27237 20.4711C6.83415 21.9564 4.04308 19.166 5.52806 16.7269C5.58732 16.6296 5.62278 16.5197 5.63157 16.4061C5.64036 16.2925 5.62223 16.1785 5.57865 16.0733C5.53507 15.968 5.46728 15.8745 5.38077 15.8004C5.29427 15.7263 5.1915 15.6737 5.08081 15.6467C2.30636 14.9732 2.30681 11.0263 5.08162 10.3532L5.38189 10.1996L5.58 9.92666L5.63297 9.59358L5.5291 9.27232C4.04383 6.83427 6.83367 4.04337 9.27271 5.52765C9.69455 5.78406 10.2371 5.55763 10.3534 5.08077ZM12.2969 5.55282C12.4757 4.8159 13.5242 4.81581 13.7032 5.55254C13.8042 5.96925 14.0023 6.35651 14.2811 6.68228C14.5403 6.98519 14.8626 7.22722 15.225 7.39166C15.2525 7.40411 15.2801 7.41611 15.308 7.42766C15.7042 7.59181 16.1336 7.66009 16.5612 7.62694C16.9888 7.59379 17.4025 7.46014 17.7687 7.23687C18.4163 6.84272 19.1588 7.58417 18.7641 8.23286C18.5411 8.59889 18.4077 9.01236 18.3746 9.43966C18.3415 9.86696 18.4097 10.296 18.5737 10.692C18.7377 11.088 18.9928 11.4397 19.3182 11.7185C19.5293 11.8993 19.7661 12.0462 20.02 12.1547C20.1577 12.2136 20.3004 12.2611 20.4468 12.2967C21.1837 12.4755 21.1844 13.5242 20.4476 13.7032C20.0309 13.8042 19.6437 14.0022 19.3179 14.281C18.9921 14.5599 18.7367 14.9117 18.5725 15.308C18.4084 15.7042 18.3401 16.1336 18.3732 16.5611C18.4064 16.9887 18.54 17.4025 18.7633 17.7686C19.1574 18.4163 18.416 19.1587 17.7673 18.764C17.4013 18.5411 16.9878 18.4076 16.5605 18.3746C16.1332 18.3415 15.7041 18.4097 15.3082 18.5737C14.9122 18.7376 14.5605 18.9927 14.2816 19.3182C14.0028 19.6437 13.8047 20.0303 13.7034 20.4468C13.5247 21.1837 12.476 21.1843 12.297 20.4476C12.196 20.0309 11.9979 19.6436 11.7191 19.3178C11.4403 18.992 11.0884 18.7366 10.6922 18.5725C10.296 18.4083 9.86661 18.34 9.43902 18.3732C9.01155 18.4063 8.59762 18.5401 8.23153 18.7632C7.58388 19.1574 6.84155 18.4158 7.23626 17.7671C7.45914 17.4011 7.59254 16.9877 7.62561 16.5605C7.65868 16.1332 7.59047 15.7041 7.4265 15.3081C7.26254 14.9121 7.00746 14.5604 6.68199 14.2816C6.35652 14.0028 5.96931 13.8045 5.55286 13.7032C4.81595 13.5245 4.81613 12.4759 5.55286 12.2969C5.96957 12.1959 6.35656 11.9979 6.68232 11.7191C7.00816 11.4402 7.26355 11.0884 7.4277 10.6922C7.59186 10.2959 7.66014 9.86657 7.62698 9.43897C7.59384 9.01151 7.46007 8.59758 7.23692 8.23148C6.96477 7.7843 7.23425 7.29208 7.64069 7.16013C7.82295 7.10097 8.03275 7.11425 8.23359 7.23652C8.45426 7.37069 8.68414 7.46946 8.91754 7.53521C10.1195 7.87385 11.4148 7.33677 12.0247 6.24795C12.1432 6.03629 12.2359 5.80379 12.2969 5.55282ZM9.00011 13.0001C9.00011 10.7909 10.791 9.00006 13.0001 9.00006C15.2092 9.00006 17.0001 10.7909 17.0001 13.0001C17.0001 15.2092 15.2092 17.0001 13.0001 17.0001C10.791 17.0001 9.00011 15.2092 9.00011 13.0001ZM13.0001 11.0001C11.8955 11.0001 11.0001 11.8955 11.0001 13.0001C11.0001 14.1046 11.8955 15.0001 13.0001 15.0001C14.1047 15.0001 15.0001 14.1046 15.0001 13.0001C15.0001 11.8955 14.1047 11.0001 13.0001 11.0001Z" fill="#888888"/>
</svg>
