<svg width="54" height="32" viewBox="0 0 54 32" fill="none" xmlns="http://www.w3.org/2000/svg">
<rect width="54" height="32" rx="16" fill="#EEEEEE"/>
<path d="M15.48 19.1C14.86 19.1 14.3333 18.9933 13.9 18.78C13.4733 18.56 13.1467 18.25 12.92 17.85C12.6933 17.4433 12.5667 16.9567 12.54 16.39C12.5333 16.1167 12.53 15.8233 12.53 15.51C12.53 15.1967 12.5333 14.8967 12.54 14.61C12.5667 14.05 12.6933 13.5667 12.92 13.16C13.1533 12.7533 13.4833 12.4433 13.91 12.23C14.3433 12.01 14.8667 11.9 15.48 11.9C15.9333 11.9 16.34 11.96 16.7 12.08C17.06 12.2 17.3667 12.3667 17.62 12.58C17.8733 12.7867 18.07 13.03 18.21 13.31C18.35 13.59 18.4233 13.8933 18.43 14.22C18.4367 14.28 18.4167 14.33 18.37 14.37C18.33 14.41 18.28 14.43 18.22 14.43H17.27C17.1967 14.43 17.1367 14.4133 17.09 14.38C17.0433 14.34 17.01 14.2767 16.99 14.19C16.8833 13.75 16.7 13.45 16.44 13.29C16.18 13.13 15.8567 13.05 15.47 13.05C15.0233 13.05 14.6667 13.1767 14.4 13.43C14.1333 13.6767 13.99 14.0867 13.97 14.66C13.95 15.2067 13.95 15.7667 13.97 16.34C13.99 16.9133 14.1333 17.3267 14.4 17.58C14.6667 17.8267 15.0233 17.95 15.47 17.95C15.8567 17.95 16.18 17.87 16.44 17.71C16.7 17.5433 16.8833 17.2433 16.99 16.81C17.01 16.7167 17.0433 16.6533 17.09 16.62C17.1367 16.5867 17.1967 16.57 17.27 16.57H18.22C18.28 16.57 18.33 16.59 18.37 16.63C18.4167 16.67 18.4367 16.72 18.43 16.78C18.4233 17.1067 18.35 17.41 18.21 17.69C18.07 17.97 17.8733 18.2167 17.62 18.43C17.3667 18.6367 17.06 18.8 16.7 18.92C16.34 19.04 15.9333 19.1 15.48 19.1ZM19.7359 19C19.6693 19 19.6126 18.9767 19.5659 18.93C19.5193 18.8833 19.4959 18.8267 19.4959 18.76V14.04C19.4959 13.9733 19.5193 13.9167 19.5659 13.87C19.6126 13.8233 19.6693 13.8 19.7359 13.8H20.5559C20.6226 13.8 20.6793 13.8233 20.7259 13.87C20.7726 13.9167 20.7959 13.9733 20.7959 14.04V15.83H21.5159L22.7359 13.96C22.7626 13.9133 22.7959 13.8767 22.8359 13.85C22.8826 13.8167 22.9426 13.8 23.0159 13.8H23.9059C23.9726 13.8 24.0259 13.8167 24.0659 13.85C24.1059 13.8833 24.1259 13.9267 24.1259 13.98C24.1259 14 24.1193 14.0233 24.1059 14.05C24.0993 14.07 24.0893 14.09 24.0759 14.11L22.6359 16.3L24.2859 18.69C24.3193 18.73 24.3359 18.7733 24.3359 18.82C24.3359 18.8733 24.3159 18.9167 24.2759 18.95C24.2359 18.9833 24.1859 19 24.1259 19H23.1159C23.0493 19 22.9926 18.9867 22.9459 18.96C22.9059 18.9333 22.8693 18.8967 22.8359 18.85L21.5159 16.89H20.7959V18.76C20.7959 18.8267 20.7726 18.8833 20.7259 18.93C20.6793 18.9767 20.6226 19 20.5559 19H19.7359ZM27.2745 19.1C26.7411 19.1 26.2911 19.0067 25.9245 18.82C25.5645 18.6333 25.2878 18.37 25.0945 18.03C24.9078 17.69 24.8011 17.2933 24.7745 16.84C24.7678 16.72 24.7645 16.5733 24.7645 16.4C24.7645 16.2267 24.7678 16.08 24.7745 15.96C24.8011 15.5 24.9111 15.1033 25.1045 14.77C25.3045 14.43 25.5845 14.1667 25.9445 13.98C26.3111 13.7933 26.7545 13.7 27.2745 13.7C27.7945 13.7 28.2345 13.7933 28.5945 13.98C28.9611 14.1667 29.2411 14.43 29.4345 14.77C29.6345 15.1033 29.7478 15.5 29.7745 15.96C29.7811 16.08 29.7845 16.2267 29.7845 16.4C29.7845 16.5733 29.7811 16.72 29.7745 16.84C29.7478 17.2933 29.6378 17.69 29.4445 18.03C29.2578 18.37 28.9811 18.6333 28.6145 18.82C28.2545 19.0067 27.8078 19.1 27.2745 19.1ZM27.2745 18.11C27.6278 18.11 27.9011 18 28.0945 17.78C28.2878 17.5533 28.3945 17.2233 28.4145 16.79C28.4211 16.69 28.4245 16.56 28.4245 16.4C28.4245 16.24 28.4211 16.11 28.4145 16.01C28.3945 15.5833 28.2878 15.2567 28.0945 15.03C27.9011 14.8033 27.6278 14.69 27.2745 14.69C26.9211 14.69 26.6478 14.8033 26.4545 15.03C26.2611 15.2567 26.1545 15.5833 26.1345 16.01C26.1278 16.11 26.1245 16.24 26.1245 16.4C26.1245 16.56 26.1278 16.69 26.1345 16.79C26.1545 17.2233 26.2611 17.5533 26.4545 17.78C26.6478 18 26.9211 18.11 27.2745 18.11ZM31.1424 20.9C31.0758 20.9 31.0191 20.8767 30.9724 20.83C30.9258 20.7833 30.9024 20.7267 30.9024 20.66V14.04C30.9024 13.9733 30.9258 13.9167 30.9724 13.87C31.0191 13.8233 31.0758 13.8 31.1424 13.8H31.9324C32.0058 13.8 32.0624 13.8233 32.1024 13.87C32.1491 13.9167 32.1724 13.9733 32.1724 14.04V14.44C32.3324 14.2267 32.5424 14.05 32.8024 13.91C33.0624 13.77 33.3858 13.7 33.7724 13.7C34.1258 13.7 34.4324 13.7567 34.6924 13.87C34.9524 13.9833 35.1691 14.1467 35.3424 14.36C35.5158 14.5667 35.6491 14.8133 35.7424 15.1C35.8358 15.3867 35.8891 15.7033 35.9024 16.05C35.9091 16.1633 35.9124 16.28 35.9124 16.4C35.9124 16.52 35.9091 16.64 35.9024 16.76C35.8958 17.0933 35.8458 17.4033 35.7524 17.69C35.6591 17.97 35.5224 18.2167 35.3424 18.43C35.1691 18.6367 34.9524 18.8 34.6924 18.92C34.4324 19.04 34.1258 19.1 33.7724 19.1C33.4124 19.1 33.1058 19.0367 32.8524 18.91C32.5991 18.7767 32.3924 18.6033 32.2324 18.39V20.66C32.2324 20.7267 32.2091 20.7833 32.1624 20.83C32.1224 20.8767 32.0658 20.9 31.9924 20.9H31.1424ZM33.4024 18.03C33.6891 18.03 33.9124 17.97 34.0724 17.85C34.2324 17.7233 34.3458 17.56 34.4124 17.36C34.4858 17.16 34.5291 16.94 34.5424 16.7C34.5558 16.5 34.5558 16.3 34.5424 16.1C34.5291 15.86 34.4858 15.64 34.4124 15.44C34.3458 15.24 34.2324 15.08 34.0724 14.96C33.9124 14.8333 33.6891 14.77 33.4024 14.77C33.1291 14.77 32.9058 14.8333 32.7324 14.96C32.5658 15.0867 32.4424 15.25 32.3624 15.45C32.2891 15.6433 32.2458 15.8433 32.2324 16.05C32.2258 16.17 32.2224 16.2967 32.2224 16.43C32.2224 16.5633 32.2258 16.6933 32.2324 16.82C32.2391 17.02 32.2858 17.2133 32.3724 17.4C32.4591 17.58 32.5858 17.73 32.7524 17.85C32.9191 17.97 33.1358 18.03 33.4024 18.03ZM39.335 19.1C38.8017 19.1 38.3517 19.0067 37.985 18.82C37.625 18.6333 37.3483 18.37 37.155 18.03C36.9683 17.69 36.8617 17.2933 36.835 16.84C36.8283 16.72 36.825 16.5733 36.825 16.4C36.825 16.2267 36.8283 16.08 36.835 15.96C36.8617 15.5 36.9717 15.1033 37.165 14.77C37.365 14.43 37.645 14.1667 38.005 13.98C38.3717 13.7933 38.815 13.7 39.335 13.7C39.855 13.7 40.295 13.7933 40.655 13.98C41.0217 14.1667 41.3017 14.43 41.495 14.77C41.695 15.1033 41.8083 15.5 41.835 15.96C41.8417 16.08 41.845 16.2267 41.845 16.4C41.845 16.5733 41.8417 16.72 41.835 16.84C41.8083 17.2933 41.6983 17.69 41.505 18.03C41.3183 18.37 41.0417 18.6333 40.675 18.82C40.315 19.0067 39.8683 19.1 39.335 19.1ZM39.335 18.11C39.6883 18.11 39.9617 18 40.155 17.78C40.3483 17.5533 40.455 17.2233 40.475 16.79C40.4817 16.69 40.485 16.56 40.485 16.4C40.485 16.24 40.4817 16.11 40.475 16.01C40.455 15.5833 40.3483 15.2567 40.155 15.03C39.9617 14.8033 39.6883 14.69 39.335 14.69C38.9817 14.69 38.7083 14.8033 38.515 15.03C38.3217 15.2567 38.215 15.5833 38.195 16.01C38.1883 16.11 38.185 16.24 38.185 16.4C38.185 16.56 38.1883 16.69 38.195 16.79C38.215 17.2233 38.3217 17.5533 38.515 17.78C38.7083 18 38.9817 18.11 39.335 18.11Z" fill="#3C3C3C"/>
</svg>
