<svg width="26" height="26" viewBox="0 0 26 26" fill="none" xmlns="http://www.w3.org/2000/svg">
<path d="M11.2652 10.1339L13 4.43431L14.7348 10.1339L15.6914 9.84272L14.7348 10.1339C14.8998 10.676 15.324 11.1002 15.8661 11.2652L21.5657 13L15.8661 14.7348L16.1573 15.6914L15.8661 14.7348C15.324 14.8998 14.8998 15.324 14.7348 15.8661L13 21.5657L11.2652 15.8661L10.3086 16.1573L11.2652 15.8661C11.1002 15.324 10.676 14.8998 10.1339 14.7348L4.43431 13L10.1339 11.2652L9.84272 10.3086L10.1339 11.2652C10.676 11.1002 11.1002 10.676 11.2652 10.1339Z" stroke="#888888" stroke-width="2"/>
</svg>
