<svg width="40" height="40" viewBox="0 0 40 40" fill="none" xmlns="http://www.w3.org/2000/svg">
<rect width="40" height="40" rx="20" fill="#535756"/>
<path d="M19.672 24.64C19.084 24.64 18.5707 24.57 18.132 24.43C17.6933 24.2807 17.3247 24.0847 17.026 23.842C16.7273 23.5993 16.4987 23.3333 16.34 23.044C16.1907 22.7547 16.1113 22.456 16.102 22.148C16.102 22.064 16.13 21.9987 16.186 21.952C16.242 21.9053 16.312 21.882 16.396 21.882H17.082C17.166 21.882 17.2407 21.9007 17.306 21.938C17.3713 21.9753 17.4273 22.0547 17.474 22.176C17.5673 22.512 17.726 22.7733 17.95 22.96C18.1833 23.1467 18.4493 23.2773 18.748 23.352C19.056 23.4173 19.364 23.45 19.672 23.45C20.316 23.45 20.8387 23.296 21.24 22.988C21.6413 22.68 21.842 22.2273 21.842 21.63C21.842 21.0233 21.66 20.5893 21.296 20.328C20.932 20.0667 20.428 19.936 19.784 19.936H18.454C18.3607 19.936 18.2813 19.908 18.216 19.852C18.16 19.796 18.132 19.7167 18.132 19.614V19.236C18.132 19.152 18.146 19.082 18.174 19.026C18.2113 18.9607 18.2487 18.9047 18.286 18.858L21.002 15.89H16.872C16.7787 15.89 16.6993 15.862 16.634 15.806C16.578 15.75 16.55 15.6707 16.55 15.568V15.036C16.55 14.9333 16.578 14.854 16.634 14.798C16.6993 14.7327 16.7787 14.7 16.872 14.7H22.458C22.5607 14.7 22.64 14.7327 22.696 14.798C22.7613 14.854 22.794 14.9333 22.794 15.036V15.54C22.794 15.6053 22.7753 15.666 22.738 15.722C22.71 15.7687 22.6773 15.8153 22.64 15.862L19.938 18.872L20.162 18.886C20.778 18.9047 21.3147 19.0167 21.772 19.222C22.2387 19.4273 22.598 19.7353 22.85 20.146C23.1113 20.5473 23.242 21.056 23.242 21.672C23.242 22.2973 23.088 22.834 22.78 23.282C22.472 23.7207 22.0473 24.0567 21.506 24.29C20.9647 24.5233 20.3533 24.64 19.672 24.64Z" fill="#F8FBFA"/>
</svg>
