<svg width="40" height="40" viewBox="0 0 40 40" fill="none" xmlns="http://www.w3.org/2000/svg">
<rect width="40" height="40" rx="20" fill="#535756"/>
<path d="M16.508 24.5C16.4147 24.5 16.3353 24.472 16.27 24.416C16.214 24.3507 16.186 24.2713 16.186 24.178V23.73C16.186 23.646 16.2093 23.5527 16.256 23.45C16.3027 23.3473 16.396 23.2353 16.536 23.114L19.504 20.146C19.98 19.7447 20.3533 19.404 20.624 19.124C20.904 18.8347 21.1 18.5593 21.212 18.298C21.3333 18.0367 21.394 17.766 21.394 17.486C21.394 16.954 21.2447 16.534 20.946 16.226C20.6473 15.9087 20.204 15.75 19.616 15.75C19.2427 15.75 18.9207 15.8293 18.65 15.988C18.3793 16.1373 18.1647 16.3473 18.006 16.618C17.8567 16.8793 17.7587 17.178 17.712 17.514C17.6933 17.6353 17.642 17.7193 17.558 17.766C17.4833 17.8127 17.4133 17.836 17.348 17.836H16.62C16.536 17.836 16.466 17.8127 16.41 17.766C16.354 17.71 16.326 17.6447 16.326 17.57C16.3353 17.2153 16.41 16.8607 16.55 16.506C16.69 16.142 16.8953 15.8153 17.166 15.526C17.446 15.2367 17.7867 15.0033 18.188 14.826C18.5987 14.6393 19.0747 14.546 19.616 14.546C20.3533 14.546 20.9553 14.6813 21.422 14.952C21.898 15.2133 22.248 15.5633 22.472 16.002C22.696 16.4407 22.808 16.9213 22.808 17.444C22.808 17.8547 22.738 18.2327 22.598 18.578C22.458 18.914 22.2527 19.2453 21.982 19.572C21.7207 19.8893 21.394 20.216 21.002 20.552L18.314 23.282H22.682C22.7847 23.282 22.864 23.31 22.92 23.366C22.9853 23.422 23.018 23.5013 23.018 23.604V24.178C23.018 24.2713 22.9853 24.3507 22.92 24.416C22.864 24.472 22.7847 24.5 22.682 24.5H16.508Z" fill="#F8FBFA"/>
</svg>
