<svg width="26" height="26" viewBox="0 0 26 26" fill="none" xmlns="http://www.w3.org/2000/svg">
<path fill-rule="evenodd" clip-rule="evenodd" d="M10 4.99999C8.34315 4.99999 7 6.34313 7 7.99999C7 9.65684 8.34315 11 10 11C11.6569 11 13 9.65684 13 7.99999C13 6.34313 11.6569 4.99999 10 4.99999ZM5 7.99999C5 5.23856 7.23858 2.99999 10 2.99999C12.7614 2.99999 15 5.23856 15 7.99999C15 10.7614 12.7614 13 10 13C7.23858 13 5 10.7614 5 7.99999ZM16.0312 3.88195C16.1682 3.34693 16.713 3.02426 17.248 3.16124C18.3236 3.43662 19.2768 4.06212 19.9576 4.93913C20.6383 5.81614 21.0078 6.89478 21.0078 8.00499C21.0078 9.11521 20.6383 10.1938 19.9576 11.0709C19.2768 11.9479 18.3236 12.5734 17.248 12.8487C16.713 12.9857 16.1682 12.6631 16.0312 12.128C15.8943 11.593 16.2169 11.0482 16.752 10.9112C17.3973 10.746 17.9692 10.3707 18.3777 9.84451C18.7861 9.3183 19.0078 8.67112 19.0078 8.00499C19.0078 7.33887 18.7861 6.69168 18.3777 6.16548C17.9692 5.63927 17.3973 5.26397 16.752 5.09874C16.2169 4.96176 15.8943 4.41698 16.0312 3.88195ZM8 17C7.20435 17 6.44129 17.3161 5.87868 17.8787C5.31607 18.4413 5 19.2043 5 20V22C5 22.5523 4.55228 23 4 23C3.44772 23 3 22.5523 3 22V20C3 18.6739 3.52678 17.4021 4.46447 16.4645C5.40215 15.5268 6.67392 15 8 15H12C13.3261 15 14.5979 15.5268 15.5355 16.4645C16.4732 17.4021 17 18.6739 17 20V22C17 22.5523 16.5523 23 16 23C15.4477 23 15 22.5523 15 22V20C15 19.2043 14.6839 18.4413 14.1213 17.8787C13.5587 17.3161 12.7956 17 12 17H8ZM18.0317 15.9C18.1698 15.3653 18.7152 15.0437 19.25 15.1818C20.3185 15.4576 21.2658 16.0793 21.9441 16.9498C22.6224 17.8203 22.9936 18.8907 23 19.9943L23 20L23 22C23 22.5523 22.5523 23 22 23C21.4477 23 21 22.5523 21 22V20.003C20.9956 19.3418 20.7729 18.7006 20.3665 18.1791C19.9595 17.6568 19.3911 17.2838 18.75 17.1183C18.2153 16.9802 17.8937 16.4348 18.0317 15.9Z" fill="#888888"/>
</svg>
